%TF.GenerationSoftware,KiCad,Pcbnew,10.0.0*%
%TF.CreationDate,2026-10-02T22:31:31-04:00*%
%TF.ProjectId,Jack_Yeulenski_Flight_Computer,4a61636b-5f59-4657-956c-656e736b695f,rev?*%
%TF.SameCoordinates,Original*%
%TF.FileFunction,Paste,Top*%
%TF.FilePolarity,Positive*%
%FSLAX46Y46*%
G04 Gerber Fmt 4.6, Leading zero omitted, Abs format (unit mm)*
G04 Created by KiCad (PCBNEW 10.0.0) date 2026-10-02 22:31:31*
%MOMM*%
%LPD*%
G01*
G04 APERTURE LIST*
G04 Aperture macros list*
%AMRoundRect*
0 Rectangle with rounded corners*
0 $1 Rounding radius*
0 $2 $3 $4 $5 $6 $7 $8 $9 X,Y pos of 4 corners*
0 Add a 4 corners polygon primitive as box body*
4,1,4,$2,$3,$4,$5,$6,$7,$8,$9,$2,$3,0*
0 Add four circle primitives for the rounded corners*
1,1,$1+$1,$2,$3*
1,1,$1+$1,$4,$5*
1,1,$1+$1,$6,$7*
1,1,$1+$1,$8,$9*
0 Add four rect primitives between the rounded corners*
20,1,$1+$1,$2,$3,$4,$5,0*
20,1,$1+$1,$4,$5,$6,$7,0*
20,1,$1+$1,$6,$7,$8,$9,0*
20,1,$1+$1,$8,$9,$2,$3,0*%
G04 Aperture macros list end*
%ADD10RoundRect,0.200000X-0.200000X-0.275000X0.200000X-0.275000X0.200000X0.275000X-0.200000X0.275000X0*%
%ADD11R,1.498600X0.558800*%
%ADD12RoundRect,0.200000X0.200000X0.275000X-0.200000X0.275000X-0.200000X-0.275000X0.200000X-0.275000X0*%
%ADD13RoundRect,0.135000X-0.135000X-0.185000X0.135000X-0.185000X0.135000X0.185000X-0.135000X0.185000X0*%
%ADD14R,7.493000X1.790700*%
%ADD15RoundRect,0.250000X0.475000X-0.250000X0.475000X0.250000X-0.475000X0.250000X-0.475000X-0.250000X0*%
%ADD16RoundRect,0.250000X0.250000X0.475000X-0.250000X0.475000X-0.250000X-0.475000X0.250000X-0.475000X0*%
%ADD17R,2.260600X2.209800*%
%ADD18RoundRect,0.062500X0.275000X-0.062500X0.275000X0.062500X-0.275000X0.062500X-0.275000X-0.062500X0*%
%ADD19RoundRect,0.062500X0.062500X-0.275000X0.062500X0.275000X-0.062500X0.275000X-0.062500X-0.275000X0*%
%ADD20RoundRect,0.200000X-0.275000X0.200000X-0.275000X-0.200000X0.275000X-0.200000X0.275000X0.200000X0*%
%ADD21RoundRect,0.200000X0.275000X-0.200000X0.275000X0.200000X-0.275000X0.200000X-0.275000X-0.200000X0*%
%ADD22RoundRect,0.250000X-0.475000X0.250000X-0.475000X-0.250000X0.475000X-0.250000X0.475000X0.250000X0*%
%ADD23RoundRect,0.243750X-0.243750X-0.456250X0.243750X-0.456250X0.243750X0.456250X-0.243750X0.456250X0*%
%ADD24R,0.950000X0.550000*%
G04 APERTURE END LIST*
D10*
%TO.C,R9*%
X148575000Y-86800000D03*
X150225000Y-86800000D03*
%TD*%
%TO.C,R11*%
X142375000Y-90600000D03*
X144025000Y-90600000D03*
%TD*%
D11*
%TO.C,U2*%
X152694900Y-66295000D03*
X152694900Y-67565000D03*
X152694900Y-68835000D03*
X152694900Y-70105000D03*
X158105100Y-70105000D03*
X158105100Y-68835000D03*
X158105100Y-67565000D03*
X158105100Y-66295000D03*
%TD*%
D10*
%TO.C,R7*%
X144175000Y-73500000D03*
X145825000Y-73500000D03*
%TD*%
%TO.C,R8*%
X153975000Y-73600000D03*
X155625000Y-73600000D03*
%TD*%
D12*
%TO.C,R3*%
X114825000Y-102000000D03*
X113175000Y-102000000D03*
%TD*%
D13*
%TO.C,Rpull2*%
X139265000Y-69000000D03*
X140285000Y-69000000D03*
%TD*%
D14*
%TO.C,L1*%
X143800000Y-55399650D03*
X143800000Y-61000350D03*
%TD*%
D12*
%TO.C,R2*%
X114825000Y-107000000D03*
X113175000Y-107000000D03*
%TD*%
D15*
%TO.C,C10*%
X108000000Y-104450000D03*
X108000000Y-102550000D03*
%TD*%
D12*
%TO.C,R1*%
X114825000Y-104500000D03*
X113175000Y-104500000D03*
%TD*%
D16*
%TO.C,C6*%
X148550000Y-65200000D03*
X146650000Y-65200000D03*
%TD*%
D17*
%TO.C,CR1*%
X153816100Y-61400000D03*
X150183900Y-61400000D03*
%TD*%
D18*
%TO.C,U3*%
X146937500Y-70500000D03*
X146937500Y-70000000D03*
X146937500Y-69500000D03*
X146937500Y-69000000D03*
X146937500Y-68500000D03*
X146937500Y-68000000D03*
X146937500Y-67500000D03*
D19*
X148200000Y-66987500D03*
D18*
X149462500Y-67500000D03*
X149462500Y-68000000D03*
X149462500Y-68500000D03*
X149462500Y-69000000D03*
X149462500Y-69500000D03*
X149462500Y-70000000D03*
X149462500Y-70500000D03*
D19*
X148200000Y-71012500D03*
%TD*%
D20*
%TO.C,R4*%
X141000000Y-76175000D03*
X141000000Y-77825000D03*
%TD*%
D13*
%TO.C,Rpull1*%
X139265000Y-66500000D03*
X140285000Y-66500000D03*
%TD*%
D21*
%TO.C,R6*%
X141000000Y-74650000D03*
X141000000Y-73000000D03*
%TD*%
D10*
%TO.C,R12*%
X149775000Y-73500000D03*
X151425000Y-73500000D03*
%TD*%
D22*
%TO.C,C11*%
X108000000Y-106550000D03*
X108000000Y-108450000D03*
%TD*%
D21*
%TO.C,R10*%
X146400000Y-89425000D03*
X146400000Y-87775000D03*
%TD*%
D20*
%TO.C,R5*%
X141000000Y-79675000D03*
X141000000Y-81325000D03*
%TD*%
D23*
%TO.C,D1*%
X117062500Y-104500000D03*
X118937500Y-104500000D03*
%TD*%
%TO.C,D3*%
X117062500Y-102000000D03*
X118937500Y-102000000D03*
%TD*%
D24*
%TO.C,U4*%
X142125000Y-66925000D03*
X142125000Y-68175000D03*
X142125000Y-69425000D03*
X142125000Y-70675000D03*
X144275000Y-70675000D03*
X144275000Y-69425000D03*
X144275000Y-68175000D03*
X144275000Y-66925000D03*
%TD*%
D23*
%TO.C,D2*%
X117000000Y-107000000D03*
X118875000Y-107000000D03*
%TD*%
M02*
