%TF.GenerationSoftware,KiCad,Pcbnew,10.0.0*%
%TF.CreationDate,2026-10-02T22:31:31-04:00*%
%TF.ProjectId,Jack_Yeulenski_Flight_Computer,4a61636b-5f59-4657-956c-656e736b695f,rev?*%
%TF.SameCoordinates,Original*%
%TF.FileFunction,Copper,L1,Top*%
%TF.FilePolarity,Positive*%
%FSLAX46Y46*%
G04 Gerber Fmt 4.6, Leading zero omitted, Abs format (unit mm)*
G04 Created by KiCad (PCBNEW 10.0.0) date 2026-10-02 22:31:31*
%MOMM*%
%LPD*%
G01*
G04 APERTURE LIST*
G04 Aperture macros list*
%AMRoundRect*
0 Rectangle with rounded corners*
0 $1 Rounding radius*
0 $2 $3 $4 $5 $6 $7 $8 $9 X,Y pos of 4 corners*
0 Add a 4 corners polygon primitive as box body*
4,1,4,$2,$3,$4,$5,$6,$7,$8,$9,$2,$3,0*
0 Add four circle primitives for the rounded corners*
1,1,$1+$1,$2,$3*
1,1,$1+$1,$4,$5*
1,1,$1+$1,$6,$7*
1,1,$1+$1,$8,$9*
0 Add four rect primitives between the rounded corners*
20,1,$1+$1,$2,$3,$4,$5,0*
20,1,$1+$1,$4,$5,$6,$7,0*
20,1,$1+$1,$6,$7,$8,$9,0*
20,1,$1+$1,$8,$9,$2,$3,0*%
G04 Aperture macros list end*
%TA.AperFunction,SMDPad,CuDef*%
%ADD10RoundRect,0.200000X-0.200000X-0.275000X0.200000X-0.275000X0.200000X0.275000X-0.200000X0.275000X0*%
%TD*%
%TA.AperFunction,ComponentPad*%
%ADD11RoundRect,0.250000X-0.725000X0.600000X-0.725000X-0.600000X0.725000X-0.600000X0.725000X0.600000X0*%
%TD*%
%TA.AperFunction,ComponentPad*%
%ADD12O,1.950000X1.700000*%
%TD*%
%TA.AperFunction,SMDPad,CuDef*%
%ADD13R,1.498600X0.558800*%
%TD*%
%TA.AperFunction,SMDPad,CuDef*%
%ADD14RoundRect,0.200000X0.200000X0.275000X-0.200000X0.275000X-0.200000X-0.275000X0.200000X-0.275000X0*%
%TD*%
%TA.AperFunction,SMDPad,CuDef*%
%ADD15RoundRect,0.135000X-0.135000X-0.185000X0.135000X-0.185000X0.135000X0.185000X-0.135000X0.185000X0*%
%TD*%
%TA.AperFunction,SMDPad,CuDef*%
%ADD16R,7.493000X1.790700*%
%TD*%
%TA.AperFunction,SMDPad,CuDef*%
%ADD17RoundRect,0.250000X0.475000X-0.250000X0.475000X0.250000X-0.475000X0.250000X-0.475000X-0.250000X0*%
%TD*%
%TA.AperFunction,SMDPad,CuDef*%
%ADD18RoundRect,0.250000X0.250000X0.475000X-0.250000X0.475000X-0.250000X-0.475000X0.250000X-0.475000X0*%
%TD*%
%TA.AperFunction,SMDPad,CuDef*%
%ADD19R,2.260600X2.209800*%
%TD*%
%TA.AperFunction,SMDPad,CuDef*%
%ADD20RoundRect,0.062500X0.275000X-0.062500X0.275000X0.062500X-0.275000X0.062500X-0.275000X-0.062500X0*%
%TD*%
%TA.AperFunction,SMDPad,CuDef*%
%ADD21RoundRect,0.062500X0.062500X-0.275000X0.062500X0.275000X-0.062500X0.275000X-0.062500X-0.275000X0*%
%TD*%
%TA.AperFunction,SMDPad,CuDef*%
%ADD22RoundRect,0.200000X-0.275000X0.200000X-0.275000X-0.200000X0.275000X-0.200000X0.275000X0.200000X0*%
%TD*%
%TA.AperFunction,SMDPad,CuDef*%
%ADD23RoundRect,0.200000X0.275000X-0.200000X0.275000X0.200000X-0.275000X0.200000X-0.275000X-0.200000X0*%
%TD*%
%TA.AperFunction,SMDPad,CuDef*%
%ADD24RoundRect,0.250000X-0.475000X0.250000X-0.475000X-0.250000X0.475000X-0.250000X0.475000X0.250000X0*%
%TD*%
%TA.AperFunction,ComponentPad*%
%ADD25C,2.000000*%
%TD*%
%TA.AperFunction,ComponentPad*%
%ADD26C,1.524000*%
%TD*%
%TA.AperFunction,ComponentPad*%
%ADD27C,1.270000*%
%TD*%
%TA.AperFunction,ComponentPad*%
%ADD28RoundRect,0.250000X0.750000X-0.600000X0.750000X0.600000X-0.750000X0.600000X-0.750000X-0.600000X0*%
%TD*%
%TA.AperFunction,ComponentPad*%
%ADD29O,2.000000X1.700000*%
%TD*%
%TA.AperFunction,SMDPad,CuDef*%
%ADD30RoundRect,0.243750X-0.243750X-0.456250X0.243750X-0.456250X0.243750X0.456250X-0.243750X0.456250X0*%
%TD*%
%TA.AperFunction,SMDPad,CuDef*%
%ADD31R,0.950000X0.550000*%
%TD*%
%TA.AperFunction,ComponentPad*%
%ADD32RoundRect,0.250000X0.600000X0.750000X-0.600000X0.750000X-0.600000X-0.750000X0.600000X-0.750000X0*%
%TD*%
%TA.AperFunction,ComponentPad*%
%ADD33O,1.700000X2.000000*%
%TD*%
%TA.AperFunction,ViaPad*%
%ADD34C,0.600000*%
%TD*%
%TA.AperFunction,Conductor*%
%ADD35C,0.200000*%
%TD*%
G04 APERTURE END LIST*
D10*
%TO.P,R9,1*%
%TO.N,GND*%
X148575000Y-86800000D03*
%TO.P,R9,2*%
%TO.N,Net-(C6-Pad2)*%
X150225000Y-86800000D03*
%TD*%
%TO.P,R11,1*%
%TO.N,+5V*%
X142375000Y-90600000D03*
%TO.P,R11,2*%
%TO.N,Net-(R10-Pad1)*%
X144025000Y-90600000D03*
%TD*%
D11*
%TO.P,J4,1,Pin_1_1*%
%TO.N,+3.3V*%
X113445000Y-82710000D03*
D12*
%TO.P,J4,2,Pin_2_2*%
%TO.N,SDA2*%
X113445000Y-85210000D03*
%TO.P,J4,3,Pin_3_3*%
%TO.N,SCL2*%
X113445000Y-87710000D03*
%TO.P,J4,4,Pin_4_4*%
%TO.N,GND*%
X113445000Y-90210000D03*
%TD*%
D13*
%TO.P,U2,1,VC_1*%
%TO.N,Net-(U2-VC)*%
X152694900Y-66295000D03*
%TO.P,U2,2,FB_2*%
%TO.N,Net-(U2-FB)*%
X152694900Y-67565000D03*
%TO.P,U2,3,TEST_3*%
%TO.N,unconnected-(U2-TEST-Pad3)*%
X152694900Y-68835000D03*
%TO.P,U2,4,SS_4*%
%TO.N,unconnected-(U2-SS-Pad4)*%
X152694900Y-70105000D03*
%TO.P,U2,5,VCC_5*%
%TO.N,Net-(J1-Pin_1)*%
X158105100Y-70105000D03*
%TO.P,U2,6,AGND_6*%
%TO.N,GND*%
X158105100Y-68835000D03*
%TO.P,U2,7,PGND_7*%
X158105100Y-67565000D03*
%TO.P,U2,8,VSW_8*%
%TO.N,Net-(U2-VSW)*%
X158105100Y-66295000D03*
%TD*%
D10*
%TO.P,R7,1*%
%TO.N,GND*%
X144175000Y-73500000D03*
%TO.P,R7,2*%
%TO.N,Net-(R12-Pad1)*%
X145825000Y-73500000D03*
%TD*%
D11*
%TO.P,J5,1,SERVO_PWM_1*%
%TO.N,SERVO2_PWM*%
X111850000Y-70000000D03*
D12*
%TO.P,J5,2,+5V_2*%
%TO.N,+5V_SERVO*%
X111850000Y-72500000D03*
%TO.P,J5,3,GND_3*%
%TO.N,GND*%
X111850000Y-75000000D03*
%TD*%
D10*
%TO.P,R8,1*%
%TO.N,Net-(U2-FB)*%
X153975000Y-73600000D03*
%TO.P,R8,2*%
%TO.N,Net-(R10-Pad2)*%
X155625000Y-73600000D03*
%TD*%
D14*
%TO.P,R3,1*%
%TO.N,Net-(D3-K)*%
X114825000Y-102000000D03*
%TO.P,R3,2*%
%TO.N,GND*%
X113175000Y-102000000D03*
%TD*%
D15*
%TO.P,Rpull2,1*%
%TO.N,SDA*%
X139265000Y-69000000D03*
%TO.P,Rpull2,2*%
%TO.N,+3V3*%
X140285000Y-69000000D03*
%TD*%
D16*
%TO.P,L1,1,1_1*%
%TO.N,Net-(J1-Pin_1)*%
X143800000Y-55399650D03*
%TO.P,L1,2,2_2*%
%TO.N,Net-(U2-VSW)*%
X143800000Y-61000350D03*
%TD*%
D14*
%TO.P,R2,1*%
%TO.N,Net-(D2-K)*%
X114825000Y-107000000D03*
%TO.P,R2,2*%
%TO.N,GND*%
X113175000Y-107000000D03*
%TD*%
D17*
%TO.P,C10,1*%
%TO.N,+3V3*%
X108000000Y-104450000D03*
%TO.P,C10,2*%
%TO.N,GND*%
X108000000Y-102550000D03*
%TD*%
D14*
%TO.P,R1,1*%
%TO.N,Net-(D1-K)*%
X114825000Y-104500000D03*
%TO.P,R1,2*%
%TO.N,GND*%
X113175000Y-104500000D03*
%TD*%
D11*
%TO.P,J3,1,SERVO_PWM_1*%
%TO.N,SERVO1_PWM*%
X111850000Y-58000000D03*
D12*
%TO.P,J3,2,+5V_2*%
%TO.N,+5V_SERVO*%
X111850000Y-60500000D03*
%TO.P,J3,3,GND_3*%
%TO.N,GND*%
X111850000Y-63000000D03*
%TD*%
D18*
%TO.P,C6,1*%
%TO.N,Net-(U2-VC)*%
X148550000Y-65200000D03*
%TO.P,C6,2*%
%TO.N,Net-(C6-Pad2)*%
X146650000Y-65200000D03*
%TD*%
D19*
%TO.P,CR1,1*%
%TO.N,+5V*%
X153816100Y-61400000D03*
%TO.P,CR1,2*%
%TO.N,Net-(U2-VSW)*%
X150183900Y-61400000D03*
%TD*%
D20*
%TO.P,U3,1,INT2_1*%
%TO.N,unconnected-(U3-INT2-Pad1)*%
X146937500Y-70500000D03*
%TO.P,U3,2,GNDA_2*%
%TO.N,GND*%
X146937500Y-70000000D03*
%TO.P,U3,3,VDD_3*%
%TO.N,+3V3*%
X146937500Y-69500000D03*
%TO.P,U3,4,GNDA_4*%
%TO.N,GND*%
X146937500Y-69000000D03*
%TO.P,U3,5,~{CSB2}_5*%
%TO.N,unconnected-(U3-~{CSB2}-Pad5)*%
X146937500Y-68500000D03*
%TO.P,U3,6,GNDIO_6*%
%TO.N,GND*%
X146937500Y-68000000D03*
%TO.P,U3,7,PS_7*%
%TO.N,+3V3*%
X146937500Y-67500000D03*
D21*
%TO.P,U3,8,SCK/SCL_8*%
%TO.N,SCL*%
X148200000Y-66987500D03*
D20*
%TO.P,U3,9,SDI/SDA_9*%
%TO.N,SDA*%
X149462500Y-67500000D03*
%TO.P,U3,10,SDO2_10*%
%TO.N,GND*%
X149462500Y-68000000D03*
%TO.P,U3,11,VDDIO_11*%
%TO.N,+3V3*%
X149462500Y-68500000D03*
%TO.P,U3,12,INT3_12*%
%TO.N,unconnected-(U3-INT3-Pad12)*%
X149462500Y-69000000D03*
%TO.P,U3,13,INT4_13*%
%TO.N,unconnected-(U3-INT4-Pad13)*%
X149462500Y-69500000D03*
%TO.P,U3,14,~{CSB1}_14*%
%TO.N,+3V3*%
X149462500Y-70000000D03*
%TO.P,U3,15,SDO1_15*%
%TO.N,GND*%
X149462500Y-70500000D03*
D21*
%TO.P,U3,16,INT1_16*%
%TO.N,unconnected-(U3-INT1-Pad16)*%
X148200000Y-71012500D03*
%TD*%
D22*
%TO.P,R4,1*%
%TO.N,GND*%
X141000000Y-76175000D03*
%TO.P,R4,2*%
%TO.N,Net-(Teensy4.1-A0)*%
X141000000Y-77825000D03*
%TD*%
D15*
%TO.P,Rpull1,1*%
%TO.N,SCL*%
X139265000Y-66500000D03*
%TO.P,Rpull1,2*%
%TO.N,+3V3*%
X140285000Y-66500000D03*
%TD*%
D23*
%TO.P,R6,1*%
%TO.N,GND*%
X141000000Y-74650000D03*
%TO.P,R6,2*%
%TO.N,Net-(C6-Pad2)*%
X141000000Y-73000000D03*
%TD*%
D10*
%TO.P,R12,1*%
%TO.N,Net-(R12-Pad1)*%
X149775000Y-73500000D03*
%TO.P,R12,2*%
%TO.N,Net-(U2-FB)*%
X151425000Y-73500000D03*
%TD*%
D24*
%TO.P,C11,1*%
%TO.N,+3V3*%
X108000000Y-106550000D03*
%TO.P,C11,2*%
%TO.N,GND*%
X108000000Y-108450000D03*
%TD*%
D25*
%TO.P,Teensy4.1,0,RX1_0*%
%TO.N,RX*%
X121657500Y-51080000D03*
%TO.P,Teensy4.1,1,TX1_1*%
%TO.N,TX*%
X121657500Y-53620000D03*
%TO.P,Teensy4.1,2,PWM_2*%
%TO.N,SERVO1_PWM*%
X121657500Y-56160000D03*
%TO.P,Teensy4.1,3,PWM_3*%
%TO.N,SERVO2_PWM*%
X121657500Y-58700000D03*
%TO.P,Teensy4.1,3V,3.3V_3V*%
%TO.N,+3.3V*%
X121657500Y-84100000D03*
%TO.P,Teensy4.1,3V1,3.3V_3V1*%
%TO.N,+3V3*%
X136897500Y-53620000D03*
%TO.P,Teensy4.1,4,PWM_4*%
%TO.N,unconnected-(Teensy4.1-PWM-Pad4)*%
X121657500Y-61240000D03*
%TO.P,Teensy4.1,5,PWM_5*%
%TO.N,unconnected-(Teensy4.1-PWM-Pad5)*%
X121657500Y-63780000D03*
%TO.P,Teensy4.1,5V,VIN_5V*%
%TO.N,Net-(J1-Pin_1)*%
X136897500Y-48540000D03*
%TO.P,Teensy4.1,6,PWM_6*%
%TO.N,unconnected-(Teensy4.1-PWM-Pad6)*%
X121657500Y-66320000D03*
%TO.P,Teensy4.1,7,RX2_7*%
%TO.N,unconnected-(Teensy4.1-RX2-Pad7)*%
X121657500Y-68860000D03*
%TO.P,Teensy4.1,8,TX2_8*%
%TO.N,unconnected-(Teensy4.1-TX2-Pad8)*%
X121657500Y-71400000D03*
%TO.P,Teensy4.1,9,PWM_9*%
%TO.N,unconnected-(Teensy4.1-PWM-Pad9)*%
X121657500Y-73940000D03*
%TO.P,Teensy4.1,10,CS_10*%
%TO.N,unconnected-(Teensy4.1-CS-Pad10)*%
X121657500Y-76480000D03*
%TO.P,Teensy4.1,11,MOSI_11*%
%TO.N,unconnected-(Teensy4.1-MOSI-Pad11)*%
X121657500Y-79020000D03*
%TO.P,Teensy4.1,12,MISO_12*%
%TO.N,unconnected-(Teensy4.1-MISO-Pad12)*%
X121657500Y-81560000D03*
%TO.P,Teensy4.1,13,SCK_13*%
%TO.N,unconnected-(Teensy4.1-SCK-Pad13)*%
X136897500Y-81560000D03*
%TO.P,Teensy4.1,14,A0_14*%
%TO.N,Net-(Teensy4.1-A0)*%
X136897500Y-79020000D03*
%TO.P,Teensy4.1,15,A1_15*%
%TO.N,unconnected-(Teensy4.1-A1-Pad15)*%
X136897500Y-76480000D03*
%TO.P,Teensy4.1,16,A2_16*%
%TO.N,unconnected-(Teensy4.1-A2-Pad16)*%
X136897500Y-73940000D03*
%TO.P,Teensy4.1,17,A3_17*%
%TO.N,unconnected-(Teensy4.1-A3-Pad17)*%
X136897500Y-71400000D03*
%TO.P,Teensy4.1,18,SDA_18*%
%TO.N,SDA*%
X136897500Y-68860000D03*
%TO.P,Teensy4.1,19,SCL_19*%
%TO.N,SCL*%
X136897500Y-66320000D03*
%TO.P,Teensy4.1,20,TX5_20*%
%TO.N,unconnected-(Teensy4.1-TX5-Pad20)*%
X136897500Y-63780000D03*
%TO.P,Teensy4.1,21,RX5_21*%
%TO.N,unconnected-(Teensy4.1-RX5-Pad21)*%
X136897500Y-61240000D03*
%TO.P,Teensy4.1,22,PWM_22*%
%TO.N,unconnected-(Teensy4.1-PWM-Pad22)*%
X136897500Y-58700000D03*
%TO.P,Teensy4.1,23,PWM_23*%
%TO.N,unconnected-(Teensy4.1-PWM-Pad23)*%
X136897500Y-56160000D03*
%TO.P,Teensy4.1,24,SCL2_24*%
%TO.N,SCL2*%
X121657500Y-86640000D03*
%TO.P,Teensy4.1,25,SDA2_25*%
%TO.N,SDA2*%
X121657500Y-89180000D03*
%TO.P,Teensy4.1,26,MOSI1_26*%
%TO.N,unconnected-(Teensy4.1-MOSI1-Pad26)*%
X121657500Y-91720000D03*
%TO.P,Teensy4.1,27,SCK1_27*%
%TO.N,unconnected-(Teensy4.1-SCK1-Pad27)*%
X121657500Y-94260000D03*
%TO.P,Teensy4.1,28,RX7_28*%
%TO.N,unconnected-(Teensy4.1-RX7-Pad28)*%
X121657500Y-96800000D03*
%TO.P,Teensy4.1,29,TX7_29*%
%TO.N,unconnected-(Teensy4.1-TX7-Pad29)*%
X121657500Y-99340000D03*
%TO.P,Teensy4.1,30,GPIO_30*%
%TO.N,unconnected-(Teensy4.1-GPIO-Pad30)*%
X121657500Y-101880000D03*
%TO.P,Teensy4.1,31,GPIO_31*%
%TO.N,Net-(D1-A)*%
X121657500Y-104420000D03*
%TO.P,Teensy4.1,32,GPIO_32*%
%TO.N,Net-(D2-A)*%
X121657500Y-106960000D03*
%TO.P,Teensy4.1,33,PWM_33*%
%TO.N,Net-(BZ1-+)*%
X136897500Y-106960000D03*
%TO.P,Teensy4.1,34,RX8_34*%
%TO.N,unconnected-(Teensy4.1-RX8-Pad34)*%
X136897500Y-104420000D03*
%TO.P,Teensy4.1,35,TX8_35*%
%TO.N,unconnected-(Teensy4.1-TX8-Pad35)*%
X136897500Y-101880000D03*
%TO.P,Teensy4.1,36,PWM_36*%
%TO.N,unconnected-(Teensy4.1-PWM-Pad36)*%
X136897500Y-99340000D03*
%TO.P,Teensy4.1,37,PWM_37*%
%TO.N,unconnected-(Teensy4.1-PWM-Pad37)*%
X136897500Y-96800000D03*
%TO.P,Teensy4.1,38,CS1_38*%
%TO.N,unconnected-(Teensy4.1-CS1-Pad38)*%
X136897500Y-94260000D03*
%TO.P,Teensy4.1,39,MISO1_39*%
%TO.N,unconnected-(Teensy4.1-MISO1-Pad39)*%
X136897500Y-91720000D03*
%TO.P,Teensy4.1,40,A16_40*%
%TO.N,unconnected-(Teensy4.1-A16-Pad40)*%
X136897500Y-89180000D03*
%TO.P,Teensy4.1,41,A17_41*%
%TO.N,unconnected-(Teensy4.1-A17-Pad41)*%
X136897500Y-86640000D03*
%TO.P,Teensy4.1,G,GND_G*%
%TO.N,GND*%
X121657500Y-48540000D03*
%TO.P,Teensy4.1,G1,GND_G1*%
X136897500Y-51080000D03*
%TO.P,Teensy4.1,G2,GND_G2*%
X136897500Y-84100000D03*
%TD*%
D23*
%TO.P,R10,1*%
%TO.N,Net-(R10-Pad1)*%
X146400000Y-89425000D03*
%TO.P,R10,2*%
%TO.N,Net-(R10-Pad2)*%
X146400000Y-87775000D03*
%TD*%
D26*
%TO.P,BZ1,1,+_1*%
%TO.N,Net-(BZ1-+)*%
X145500000Y-106500000D03*
%TO.P,BZ1,2,-_2*%
%TO.N,GND*%
X145500000Y-99000000D03*
%TD*%
D27*
%TO.P,C8,1*%
%TO.N,Net-(J1-Pin_1)*%
X115600000Y-49200000D03*
%TO.P,C8,2*%
%TO.N,GND*%
X115600000Y-51200000D03*
%TD*%
D22*
%TO.P,R5,1*%
%TO.N,Net-(Teensy4.1-A0)*%
X141000000Y-79675000D03*
%TO.P,R5,2*%
%TO.N,Net-(J1-Pin_2)*%
X141000000Y-81325000D03*
%TD*%
D28*
%TO.P,J2,1,Pin_1_1*%
%TO.N,Net-(J1-Pin_2)*%
X147555000Y-80250000D03*
D29*
%TO.P,J2,2,Pin_2_2*%
%TO.N,GND*%
X147555000Y-77750000D03*
%TD*%
D27*
%TO.P,C7,1*%
%TO.N,+5V*%
X141800000Y-87000000D03*
%TO.P,C7,2*%
%TO.N,GND*%
X141800000Y-85000000D03*
%TD*%
D30*
%TO.P,D1,1,K_1*%
%TO.N,Net-(D1-K)*%
X117062500Y-104500000D03*
%TO.P,D1,2,A_2*%
%TO.N,Net-(D1-A)*%
X118937500Y-104500000D03*
%TD*%
%TO.P,D3,1,K_1*%
%TO.N,Net-(D3-K)*%
X117062500Y-102000000D03*
%TO.P,D3,2,A_2*%
%TO.N,+3.3V*%
X118937500Y-102000000D03*
%TD*%
D31*
%TO.P,U4,1,VDD_1*%
%TO.N,+3V3*%
X142125000Y-66925000D03*
%TO.P,U4,2,PS_2*%
X142125000Y-68175000D03*
%TO.P,U4,3,GND_3*%
%TO.N,GND*%
X142125000Y-69425000D03*
%TO.P,U4,4,CSB_4*%
%TO.N,+3V3*%
X142125000Y-70675000D03*
%TO.P,U4,5,CSB_5*%
X144275000Y-70675000D03*
%TO.P,U4,6,SDO_6*%
%TO.N,unconnected-(U4-SDO-Pad6)*%
X144275000Y-69425000D03*
%TO.P,U4,7,SDI/SDA_7*%
%TO.N,SDA*%
X144275000Y-68175000D03*
%TO.P,U4,8,SCLK_8*%
%TO.N,SCL*%
X144275000Y-66925000D03*
%TD*%
D30*
%TO.P,D2,1,K_1*%
%TO.N,Net-(D2-K)*%
X117000000Y-107000000D03*
%TO.P,D2,2,A_2*%
%TO.N,Net-(D2-A)*%
X118875000Y-107000000D03*
%TD*%
D32*
%TO.P,J1,1,Pin_1_1*%
%TO.N,Net-(J1-Pin_1)*%
X154250000Y-56045000D03*
D33*
%TO.P,J1,2,Pin_2_2*%
%TO.N,Net-(J1-Pin_2)*%
X151750000Y-56045000D03*
%TD*%
D34*
%TO.N,GND*%
X145444000Y-69686200D03*
X138956000Y-70298600D03*
X158579400Y-78254900D03*
X118600000Y-66800000D03*
%TO.N,Net-(C6-Pad2)*%
X148000000Y-63800000D03*
X141000000Y-70594900D03*
%TO.N,+5V*%
X158200000Y-83400000D03*
X157000000Y-72400000D03*
X156400000Y-63000000D03*
%TO.N,Net-(U2-VSW)*%
X144400000Y-63400000D03*
X158352300Y-60824400D03*
%TO.N,+5V_SERVO*%
X107700000Y-66500000D03*
%TO.N,SDA*%
X145510835Y-68770835D03*
X150497000Y-66572300D03*
%TO.N,+3V3*%
X127210000Y-54851600D03*
X151110000Y-72150500D03*
X121490000Y-108975000D03*
X111799000Y-106550000D03*
X142208000Y-72770000D03*
%TO.N,SCL*%
X142400000Y-64800000D03*
%TO.N,Net-(J1-Pin_2)*%
X158800000Y-80250000D03*
%TD*%
%TO.N,GND*%
D35*
X148857600Y-79421100D02*
X148533800Y-79097300D01*
X146584500Y-68000000D02*
X146295200Y-68289300D01*
X138951900Y-63405500D02*
X138951900Y-53134400D01*
X153772000Y-66983900D02*
X151510300Y-66983900D01*
X113175000Y-104500000D02*
X113175000Y-104833500D01*
X144936500Y-85000000D02*
X148857600Y-81078900D01*
X141000000Y-75412500D02*
X141000000Y-76175000D01*
X148575000Y-89993000D02*
X145500000Y-93068000D01*
X145500000Y-99000000D02*
X145500000Y-93476200D01*
X136897500Y-51080000D02*
X135556900Y-52420600D01*
X154731300Y-72654200D02*
X154250400Y-72173300D01*
X154731300Y-74056100D02*
X154731300Y-72654200D01*
X150528900Y-77102200D02*
X148533800Y-79097300D01*
X147555000Y-77750000D02*
X147555000Y-78901700D01*
X142125000Y-69425000D02*
X141348300Y-69425000D01*
X147067900Y-79097300D02*
X144175000Y-76204400D01*
X145444000Y-69686200D02*
X146357400Y-68772800D01*
X146295200Y-68289300D02*
X146295200Y-68710700D01*
X143322400Y-91094500D02*
X143322400Y-86522400D01*
X146937500Y-68000000D02*
X146584500Y-68000000D01*
X149462500Y-70500000D02*
X149462500Y-71568600D01*
X135556900Y-52420600D02*
X135556900Y-82759400D01*
X108000000Y-102550000D02*
X112625000Y-102550000D01*
X111850000Y-63000000D02*
X111850000Y-61848300D01*
X144175000Y-75371200D02*
X144175000Y-75050300D01*
X141800000Y-85000000D02*
X144936500Y-85000000D01*
X148533800Y-79097300D02*
X147219500Y-79097300D01*
X141000000Y-75371200D02*
X144175000Y-75371200D01*
X150528900Y-74446600D02*
X154340800Y-74446600D01*
X113445000Y-90210000D02*
X113445000Y-89058300D01*
X116448100Y-69701900D02*
X112301700Y-73848300D01*
X146357400Y-68772800D02*
X146584500Y-69000000D01*
X113175000Y-104833500D02*
X113175000Y-104874800D01*
X146584500Y-69000000D02*
X146937500Y-69000000D01*
X111850000Y-73848300D02*
X111850000Y-75000000D01*
X112625000Y-102550000D02*
X113175000Y-102000000D01*
X108000000Y-102550000D02*
X106969900Y-103580100D01*
X154340800Y-74446600D02*
X154731300Y-74056100D01*
X154250400Y-67462300D02*
X153772000Y-66983900D01*
X147415100Y-78901700D02*
X147219500Y-79097300D01*
X141000000Y-75371200D02*
X141000000Y-75412500D01*
X106969900Y-107419900D02*
X108000000Y-108450000D01*
X145500000Y-93068000D02*
X145500000Y-93434900D01*
X148857600Y-81078900D02*
X148857600Y-79421100D01*
X113175000Y-104500000D02*
X112625000Y-103950000D01*
X150528900Y-74446600D02*
X150528900Y-77102200D01*
X141000000Y-74650000D02*
X138956000Y-72606000D01*
X111850000Y-75000000D02*
X111850000Y-87915000D01*
X143322400Y-86522400D02*
X141800000Y-85000000D01*
X145295900Y-93068000D02*
X143322400Y-91094500D01*
X112993300Y-89058300D02*
X113445000Y-89058300D01*
X150528900Y-72635000D02*
X150528900Y-74446600D01*
X146549000Y-70000100D02*
X146549000Y-70000000D01*
X159156100Y-77678200D02*
X158579400Y-78254900D01*
X144175000Y-72374100D02*
X146549000Y-70000100D01*
X111850000Y-87915000D02*
X112993300Y-89058300D01*
X145500000Y-93434900D02*
X145500000Y-93476200D01*
X112625000Y-103950000D02*
X112625000Y-102550000D01*
X112281900Y-61848300D02*
X115600000Y-58530200D01*
X144175000Y-73500000D02*
X144175000Y-72374100D01*
X112301700Y-73848300D02*
X111850000Y-73848300D01*
X159156100Y-68835000D02*
X159156100Y-77678200D01*
X115600000Y-58530200D02*
X115600000Y-51200000D01*
X158105100Y-67565000D02*
X159156100Y-67565000D01*
X141348300Y-69425000D02*
X141348300Y-65801900D01*
X154250400Y-72173300D02*
X154250400Y-67462300D01*
X144175000Y-75050300D02*
X144175000Y-73500000D01*
X111850000Y-61848300D02*
X112281900Y-61848300D01*
X118600000Y-66800000D02*
X116448100Y-68951900D01*
X147555000Y-78901700D02*
X147415100Y-78901700D01*
X147219500Y-79097300D02*
X147067900Y-79097300D01*
X138951900Y-53134400D02*
X136897500Y-51080000D01*
X151510300Y-66983900D02*
X150494200Y-68000000D01*
X113175000Y-104874800D02*
X113175000Y-107000000D01*
X146549000Y-70000000D02*
X146937500Y-70000000D01*
X149462500Y-71568600D02*
X150528900Y-72635000D01*
X113445000Y-90210000D02*
X113445000Y-91361700D01*
X145500000Y-93068000D02*
X145295900Y-93068000D01*
X148575000Y-86800000D02*
X148575000Y-89993000D01*
X106969900Y-103580100D02*
X106969900Y-107419900D01*
X158105100Y-68835000D02*
X159156100Y-68835000D01*
X146295200Y-68710700D02*
X146357400Y-68772800D01*
X113175000Y-91631700D02*
X113175000Y-102000000D01*
X135556900Y-82759400D02*
X136897500Y-84100000D01*
X113445000Y-91361700D02*
X113175000Y-91631700D01*
X150494200Y-68000000D02*
X149462500Y-68000000D01*
X141348300Y-65801900D02*
X138951900Y-63405500D01*
X141000000Y-74650000D02*
X141000000Y-75371200D01*
X159156100Y-67565000D02*
X159156100Y-68835000D01*
X138956000Y-72606000D02*
X138956000Y-70298600D01*
X144175000Y-76204400D02*
X144175000Y-75371200D01*
X116448100Y-68951900D02*
X116448100Y-69701900D01*
%TO.N,Net-(C6-Pad2)*%
X146650000Y-65150000D02*
X148000000Y-63800000D01*
X156399800Y-80625200D02*
X150225000Y-86800000D01*
X148000000Y-63800000D02*
X151671400Y-63800000D01*
X141000000Y-73000000D02*
X141000000Y-70594900D01*
X154872100Y-67000700D02*
X154872100Y-71357100D01*
X154872100Y-71357100D02*
X156399800Y-72884800D01*
X156399800Y-72884800D02*
X156399800Y-80625200D01*
X146650000Y-65200000D02*
X146650000Y-65150000D01*
X151671400Y-63800000D02*
X154872100Y-67000700D01*
%TO.N,+5V*%
X156400000Y-63000000D02*
X156400000Y-71800000D01*
X155248100Y-61400000D02*
X155248100Y-61848100D01*
X156400000Y-71800000D02*
X157000000Y-72400000D01*
X141800000Y-87000000D02*
X142375000Y-87575000D01*
X142375000Y-87575000D02*
X142375000Y-90600000D01*
X157000000Y-82200000D02*
X158200000Y-83400000D01*
X153816100Y-61400000D02*
X155248100Y-61400000D01*
X155248100Y-61848100D02*
X156400000Y-63000000D01*
X157000000Y-72400000D02*
X157000000Y-82200000D01*
%TO.N,Net-(R10-Pad1)*%
X144025000Y-90600000D02*
X145225000Y-90600000D01*
X145225000Y-90600000D02*
X146400000Y-89425000D01*
%TO.N,+3.3V*%
X118937500Y-86820000D02*
X121657500Y-84100000D01*
X118937500Y-102000000D02*
X118937500Y-86820000D01*
%TO.N,Net-(U2-VC)*%
X150548900Y-65200000D02*
X151643900Y-66295000D01*
X152694900Y-66295000D02*
X151643900Y-66295000D01*
X148550000Y-65200000D02*
X150548900Y-65200000D01*
%TO.N,Net-(U2-FB)*%
X153745900Y-73370900D02*
X153809700Y-73434700D01*
X151425000Y-73500000D02*
X153616800Y-73500000D01*
X153616800Y-73500000D02*
X153745900Y-73370900D01*
X152694900Y-67565000D02*
X153745900Y-67565000D01*
X153745900Y-67565000D02*
X153745900Y-73370900D01*
X153809700Y-73434700D02*
X153975000Y-73600000D01*
%TO.N,Net-(J1-Pin_1)*%
X139751800Y-55399700D02*
X139751800Y-51394300D01*
X154250000Y-56045000D02*
X157054100Y-58849100D01*
X157054100Y-58849100D02*
X157054100Y-70105000D01*
X139751800Y-51394300D02*
X136897500Y-48540000D01*
X143800000Y-55399700D02*
X139751800Y-55399700D01*
X158105100Y-70105000D02*
X157054100Y-70105000D01*
%TO.N,Net-(U2-VSW)*%
X147740700Y-61000400D02*
X148103300Y-61000400D01*
X148166800Y-61000400D02*
X148311000Y-61000400D01*
X143800000Y-61000400D02*
X147699400Y-61000400D01*
X143800000Y-62800000D02*
X143800000Y-61000350D01*
X159156100Y-61628200D02*
X158352300Y-60824400D01*
X144400000Y-63400000D02*
X143800000Y-62800000D01*
X158105100Y-66295000D02*
X159156100Y-66295000D01*
X159156100Y-66295000D02*
X159156100Y-61628200D01*
X148352300Y-61000400D02*
X148751900Y-61400000D01*
X148103300Y-61000400D02*
X148166800Y-61000400D01*
X147699400Y-61000400D02*
X147740700Y-61000400D01*
X148311000Y-61000400D02*
X148352300Y-61000400D01*
X150183900Y-61400000D02*
X148751900Y-61400000D01*
%TO.N,Net-(R12-Pad1)*%
X145825000Y-73500000D02*
X149775000Y-73500000D01*
%TO.N,SERVO2_PWM*%
X121657500Y-58700000D02*
X121449400Y-58700000D01*
X111850000Y-68299400D02*
X111850000Y-70000000D01*
X121449400Y-58700000D02*
X111850000Y-68299400D01*
%TO.N,+5V_SERVO*%
X111082600Y-71348300D02*
X111850000Y-71348300D01*
X107700000Y-66500000D02*
X107700000Y-67965700D01*
X107700000Y-64650000D02*
X107700000Y-66500000D01*
X107700000Y-67965700D02*
X111082600Y-71348300D01*
X111850000Y-72500000D02*
X111850000Y-71348300D01*
X111850000Y-60500000D02*
X107700000Y-64650000D01*
%TO.N,Net-(R10-Pad2)*%
X146400000Y-87775000D02*
X155625000Y-78550000D01*
X155625000Y-78550000D02*
X155625000Y-73600000D01*
%TO.N,Net-(D3-K)*%
X117062500Y-102000000D02*
X114825000Y-102000000D01*
%TO.N,SDA*%
X150497000Y-66572300D02*
X150390200Y-66572300D01*
X145051700Y-68175000D02*
X144275000Y-68175000D01*
X145271800Y-68370200D02*
X145246900Y-68370200D01*
X139125000Y-68860000D02*
X139265000Y-69000000D01*
X145271800Y-68531800D02*
X145271800Y-68370200D01*
X145246900Y-68370200D02*
X145051700Y-68175000D01*
X136897500Y-68860000D02*
X139125000Y-68860000D01*
X145510835Y-68770835D02*
X145271800Y-68531800D01*
X150390200Y-66572300D02*
X149462500Y-67500000D01*
%TO.N,+3V3*%
X146353900Y-69500000D02*
X146937500Y-69500000D01*
X142901700Y-67501700D02*
X142901700Y-67838300D01*
X149462500Y-68500000D02*
X149896300Y-68500000D01*
X142125000Y-70675000D02*
X142513400Y-70675000D01*
X149901700Y-70000000D02*
X151110000Y-71208300D01*
X146937500Y-67500000D02*
X146935800Y-67501700D01*
X142900200Y-68175000D02*
X142901700Y-68175000D01*
X142901700Y-68175000D02*
X143005900Y-68279200D01*
X142901700Y-67500200D02*
X142901700Y-67501600D01*
X141960000Y-70675000D02*
X142125000Y-70675000D01*
X144275000Y-70675000D02*
X145051700Y-70675000D01*
X142901700Y-67838300D02*
X142901700Y-67879600D01*
X138503300Y-55225800D02*
X138503300Y-64718300D01*
X140285000Y-69000000D02*
X141960000Y-70675000D01*
X150101900Y-68705600D02*
X150101900Y-69799800D01*
X142901700Y-67879600D02*
X142901700Y-67987500D01*
X142900000Y-68175000D02*
X142900200Y-68175000D01*
X143005900Y-70182500D02*
X142513400Y-70675000D01*
X142901700Y-66925000D02*
X142901700Y-67500200D01*
X146045700Y-69935400D02*
X146045700Y-69808200D01*
X144148800Y-70675000D02*
X144275000Y-70675000D01*
X150101900Y-69799800D02*
X149901700Y-70000000D01*
X138503300Y-64718300D02*
X140285000Y-66500000D01*
X142125000Y-68175000D02*
X142900000Y-68175000D01*
X136897500Y-53620000D02*
X138503300Y-55225800D01*
X146935800Y-67501700D02*
X142901700Y-67501700D01*
X121490000Y-108975000D02*
X127210000Y-103255000D01*
X142125000Y-66925000D02*
X142901700Y-66925000D01*
X108000000Y-104450000D02*
X108000000Y-106550000D01*
X149896300Y-68500000D02*
X150101900Y-68705600D01*
X143005900Y-68279200D02*
X143005900Y-70182500D01*
X145051700Y-70675000D02*
X145438800Y-70287900D01*
X108000000Y-106550000D02*
X111799000Y-106550000D01*
X142513400Y-70675000D02*
X142513400Y-72464600D01*
X140285000Y-66500000D02*
X140285000Y-69000000D01*
X142513400Y-72464600D02*
X142208000Y-72770000D01*
X127210000Y-103255000D02*
X127210000Y-54851600D01*
X149901700Y-70000000D02*
X149462500Y-70000000D01*
X142901700Y-67987500D02*
X142901700Y-68175000D01*
X142901700Y-67501600D02*
X142901700Y-67501700D01*
X144148800Y-70675000D02*
X143498300Y-70675000D01*
X145438800Y-70287900D02*
X145693200Y-70287900D01*
X145693200Y-70287900D02*
X146045700Y-69935400D01*
X151110000Y-71208300D02*
X151110000Y-72150500D01*
X143498300Y-70675000D02*
X143005900Y-70182500D01*
X146045700Y-69808200D02*
X146353900Y-69500000D01*
%TO.N,Net-(D2-K)*%
X117000000Y-107000000D02*
X114825000Y-107000000D01*
%TO.N,Net-(D1-K)*%
X117062500Y-104500000D02*
X114825000Y-104500000D01*
%TO.N,SCL*%
X137077500Y-66500000D02*
X136897500Y-66320000D01*
X144275000Y-66925000D02*
X143498300Y-66925000D01*
X143498300Y-66925000D02*
X143498300Y-65898300D01*
X145114200Y-66987500D02*
X145051700Y-66925000D01*
X143498300Y-65898300D02*
X142400000Y-64800000D01*
X148200000Y-66987500D02*
X145114200Y-66987500D01*
X144275000Y-66925000D02*
X145051700Y-66925000D01*
X139265000Y-66500000D02*
X137077500Y-66500000D01*
%TO.N,Net-(Teensy4.1-A0)*%
X141000000Y-77825000D02*
X141000000Y-78750000D01*
X141000000Y-79020000D02*
X141000000Y-79675000D01*
X141000000Y-79020000D02*
X136897500Y-79020000D01*
X141000000Y-78750000D02*
X141000000Y-79020000D01*
%TO.N,Net-(D1-A)*%
X118937500Y-104500000D02*
X121577500Y-104500000D01*
X121577500Y-104500000D02*
X121657500Y-104420000D01*
%TO.N,Net-(D2-A)*%
X118915000Y-106960000D02*
X118875000Y-107000000D01*
X121657500Y-106960000D02*
X118915000Y-106960000D01*
%TO.N,Net-(J1-Pin_2)*%
X159556100Y-59204100D02*
X159556100Y-79493900D01*
X155045500Y-54693500D02*
X159476000Y-59124000D01*
X159476000Y-59124000D02*
X159556100Y-59204100D01*
X141000000Y-81325000D02*
X142075000Y-80250000D01*
X153461400Y-54693500D02*
X155045500Y-54693500D01*
X152901700Y-56045000D02*
X152901700Y-55253200D01*
X151750000Y-56045000D02*
X152901700Y-56045000D01*
X142075000Y-80250000D02*
X147555000Y-80250000D01*
X152901700Y-55253200D02*
X153461400Y-54693500D01*
X159556100Y-79493900D02*
X158800000Y-80250000D01*
X159476000Y-59124000D02*
X159564500Y-59212500D01*
%TD*%
M02*
