%TF.GenerationSoftware,KiCad,Pcbnew,10.0.0*%
%TF.CreationDate,2026-10-02T22:31:31-04:00*%
%TF.ProjectId,Jack_Yeulenski_Flight_Computer,4a61636b-5f59-4657-956c-656e736b695f,rev?*%
%TF.SameCoordinates,Original*%
%TF.FileFunction,Soldermask,Bot*%
%TF.FilePolarity,Negative*%
%FSLAX46Y46*%
G04 Gerber Fmt 4.6, Leading zero omitted, Abs format (unit mm)*
G04 Created by KiCad (PCBNEW 10.0.0) date 2026-10-02 22:31:31*
%MOMM*%
%LPD*%
G01*
G04 APERTURE LIST*
G04 Aperture macros list*
%AMRoundRect*
0 Rectangle with rounded corners*
0 $1 Rounding radius*
0 $2 $3 $4 $5 $6 $7 $8 $9 X,Y pos of 4 corners*
0 Add a 4 corners polygon primitive as box body*
4,1,4,$2,$3,$4,$5,$6,$7,$8,$9,$2,$3,0*
0 Add four circle primitives for the rounded corners*
1,1,$1+$1,$2,$3*
1,1,$1+$1,$4,$5*
1,1,$1+$1,$6,$7*
1,1,$1+$1,$8,$9*
0 Add four rect primitives between the rounded corners*
20,1,$1+$1,$2,$3,$4,$5,0*
20,1,$1+$1,$4,$5,$6,$7,0*
20,1,$1+$1,$6,$7,$8,$9,0*
20,1,$1+$1,$8,$9,$2,$3,0*%
G04 Aperture macros list end*
%ADD10RoundRect,0.250000X-0.725000X0.600000X-0.725000X-0.600000X0.725000X-0.600000X0.725000X0.600000X0*%
%ADD11O,1.950000X1.700000*%
%ADD12C,3.200000*%
%ADD13C,2.000000*%
%ADD14C,1.524000*%
%ADD15C,1.270000*%
%ADD16RoundRect,0.250000X0.750000X-0.600000X0.750000X0.600000X-0.750000X0.600000X-0.750000X-0.600000X0*%
%ADD17O,2.000000X1.700000*%
%ADD18RoundRect,0.250000X0.600000X0.750000X-0.600000X0.750000X-0.600000X-0.750000X0.600000X-0.750000X0*%
%ADD19O,1.700000X2.000000*%
G04 APERTURE END LIST*
D10*
%TO.C,J4*%
X113445000Y-82710000D03*
D11*
X113445000Y-85210000D03*
X113445000Y-87710000D03*
X113445000Y-90210000D03*
%TD*%
D12*
%TO.C,H4*%
X107500000Y-97500000D03*
%TD*%
D10*
%TO.C,J5*%
X111850000Y-70000000D03*
D11*
X111850000Y-72500000D03*
X111850000Y-75000000D03*
%TD*%
D12*
%TO.C,H2*%
X144000000Y-49000000D03*
%TD*%
D10*
%TO.C,J3*%
X111850000Y-58000000D03*
D11*
X111850000Y-60500000D03*
X111850000Y-63000000D03*
%TD*%
D13*
%TO.C,Teensy4.1*%
X121657500Y-51080000D03*
X121657500Y-53620000D03*
X121657500Y-56160000D03*
X121657500Y-58700000D03*
X121657500Y-84100000D03*
X136897500Y-53620000D03*
X121657500Y-61240000D03*
X121657500Y-63780000D03*
X136897500Y-48540000D03*
X121657500Y-66320000D03*
X121657500Y-68860000D03*
X121657500Y-71400000D03*
X121657500Y-73940000D03*
X121657500Y-76480000D03*
X121657500Y-79020000D03*
X121657500Y-81560000D03*
X136897500Y-81560000D03*
X136897500Y-79020000D03*
X136897500Y-76480000D03*
X136897500Y-73940000D03*
X136897500Y-71400000D03*
X136897500Y-68860000D03*
X136897500Y-66320000D03*
X136897500Y-63780000D03*
X136897500Y-61240000D03*
X136897500Y-58700000D03*
X136897500Y-56160000D03*
X121657500Y-86640000D03*
X121657500Y-89180000D03*
X121657500Y-91720000D03*
X121657500Y-94260000D03*
X121657500Y-96800000D03*
X121657500Y-99340000D03*
X121657500Y-101880000D03*
X121657500Y-104420000D03*
X121657500Y-106960000D03*
X136897500Y-106960000D03*
X136897500Y-104420000D03*
X136897500Y-101880000D03*
X136897500Y-99340000D03*
X136897500Y-96800000D03*
X136897500Y-94260000D03*
X136897500Y-91720000D03*
X136897500Y-89180000D03*
X136897500Y-86640000D03*
X121657500Y-48540000D03*
X136897500Y-51080000D03*
X136897500Y-84100000D03*
%TD*%
D14*
%TO.C,BZ1*%
X145500000Y-106500000D03*
X145500000Y-99000000D03*
%TD*%
D15*
%TO.C,C8*%
X115600000Y-49200000D03*
X115600000Y-51200000D03*
%TD*%
D16*
%TO.C,J2*%
X147555000Y-80250000D03*
D17*
X147555000Y-77750000D03*
%TD*%
D15*
%TO.C,C7*%
X141800000Y-87000000D03*
X141800000Y-85000000D03*
%TD*%
D12*
%TO.C,H1*%
X107000000Y-48500000D03*
%TD*%
%TO.C,H3*%
X150600000Y-92800000D03*
%TD*%
D18*
%TO.C,J1*%
X154250000Y-56045000D03*
D19*
X151750000Y-56045000D03*
%TD*%
M02*
