M48
; DRILL file KiCad 10.0.0 date 2026-10-02T22:34:50
; FORMAT={-:-/ absolute / metric / decimal}
; #@! TF.CreationDate,2026-10-02T22:34:50-04:00
; #@! TF.GenerationSoftware,Kicad,Pcbnew,10.0.0
; #@! TF.FileFunction,Plated,1,2,PTH
FMAT,2
METRIC
; #@! TA.AperFunction,Plated,PTH,ViaDrill
T1C0.300
; #@! TA.AperFunction,Plated,PTH,ComponentDrill
T2C0.762
; #@! TA.AperFunction,Plated,PTH,ComponentDrill
T3C0.950
; #@! TA.AperFunction,Plated,PTH,ComponentDrill
T4C1.000
; #@! TA.AperFunction,Plated,PTH,ComponentDrill
T5C1.020
%
G90
G05
T1
X107.7Y-66.5
X111.799Y-106.55
X118.6Y-66.8
X121.49Y-108.975
X127.21Y-54.852
X138.956Y-70.299
X141.0Y-70.595
X142.208Y-72.77
X142.4Y-64.8
X144.4Y-63.4
X145.444Y-69.686
X145.511Y-68.771
X148.0Y-63.8
X150.497Y-66.572
X151.11Y-72.15
X156.4Y-63.0
X157.0Y-72.4
X158.2Y-83.4
X158.352Y-60.824
X158.579Y-78.255
X158.8Y-80.25
T2
X115.6Y-49.2
X115.6Y-51.2
X141.8Y-85.0
X141.8Y-87.0
X145.5Y-99.0
X145.5Y-106.5
T3
X111.85Y-58.0
X111.85Y-60.5
X111.85Y-63.0
X111.85Y-70.0
X111.85Y-72.5
X111.85Y-75.0
X113.445Y-82.71
X113.445Y-85.21
X113.445Y-87.71
X113.445Y-90.21
T4
X147.555Y-77.75
X147.555Y-80.25
X151.75Y-56.045
X154.25Y-56.045
T5
X121.657Y-48.54
X121.657Y-51.08
X121.657Y-53.62
X121.657Y-56.16
X121.657Y-58.7
X121.657Y-61.24
X121.657Y-63.78
X121.657Y-66.32
X121.657Y-68.86
X121.657Y-71.4
X121.657Y-73.94
X121.657Y-76.48
X121.657Y-79.02
X121.657Y-81.56
X121.657Y-84.1
X121.657Y-86.64
X121.657Y-89.18
X121.657Y-91.72
X121.657Y-94.26
X121.657Y-96.8
X121.657Y-99.34
X121.657Y-101.88
X121.657Y-104.42
X121.657Y-106.96
X136.898Y-48.54
X136.898Y-51.08
X136.898Y-53.62
X136.898Y-56.16
X136.898Y-58.7
X136.898Y-61.24
X136.898Y-63.78
X136.898Y-66.32
X136.898Y-68.86
X136.898Y-71.4
X136.898Y-73.94
X136.898Y-76.48
X136.898Y-79.02
X136.898Y-81.56
X136.898Y-84.1
X136.898Y-86.64
X136.898Y-89.18
X136.898Y-91.72
X136.898Y-94.26
X136.898Y-96.8
X136.898Y-99.34
X136.898Y-101.88
X136.898Y-104.42
X136.898Y-106.96
M30
