%TF.GenerationSoftware,KiCad,Pcbnew,10.0.0*%
%TF.CreationDate,2026-10-02T22:31:31-04:00*%
%TF.ProjectId,Jack_Yeulenski_Flight_Computer,4a61636b-5f59-4657-956c-656e736b695f,rev?*%
%TF.SameCoordinates,Original*%
%TF.FileFunction,Copper,L2,Bot*%
%TF.FilePolarity,Positive*%
%FSLAX46Y46*%
G04 Gerber Fmt 4.6, Leading zero omitted, Abs format (unit mm)*
G04 Created by KiCad (PCBNEW 10.0.0) date 2026-10-02 22:31:31*
%MOMM*%
%LPD*%
G01*
G04 APERTURE LIST*
G04 Aperture macros list*
%AMRoundRect*
0 Rectangle with rounded corners*
0 $1 Rounding radius*
0 $2 $3 $4 $5 $6 $7 $8 $9 X,Y pos of 4 corners*
0 Add a 4 corners polygon primitive as box body*
4,1,4,$2,$3,$4,$5,$6,$7,$8,$9,$2,$3,0*
0 Add four circle primitives for the rounded corners*
1,1,$1+$1,$2,$3*
1,1,$1+$1,$4,$5*
1,1,$1+$1,$6,$7*
1,1,$1+$1,$8,$9*
0 Add four rect primitives between the rounded corners*
20,1,$1+$1,$2,$3,$4,$5,0*
20,1,$1+$1,$4,$5,$6,$7,0*
20,1,$1+$1,$6,$7,$8,$9,0*
20,1,$1+$1,$8,$9,$2,$3,0*%
G04 Aperture macros list end*
%TA.AperFunction,ComponentPad*%
%ADD10RoundRect,0.250000X-0.725000X0.600000X-0.725000X-0.600000X0.725000X-0.600000X0.725000X0.600000X0*%
%TD*%
%TA.AperFunction,ComponentPad*%
%ADD11O,1.950000X1.700000*%
%TD*%
%TA.AperFunction,ComponentPad*%
%ADD12C,2.000000*%
%TD*%
%TA.AperFunction,ComponentPad*%
%ADD13C,1.524000*%
%TD*%
%TA.AperFunction,ComponentPad*%
%ADD14C,1.270000*%
%TD*%
%TA.AperFunction,ComponentPad*%
%ADD15RoundRect,0.250000X0.750000X-0.600000X0.750000X0.600000X-0.750000X0.600000X-0.750000X-0.600000X0*%
%TD*%
%TA.AperFunction,ComponentPad*%
%ADD16O,2.000000X1.700000*%
%TD*%
%TA.AperFunction,ComponentPad*%
%ADD17RoundRect,0.250000X0.600000X0.750000X-0.600000X0.750000X-0.600000X-0.750000X0.600000X-0.750000X0*%
%TD*%
%TA.AperFunction,ComponentPad*%
%ADD18O,1.700000X2.000000*%
%TD*%
%TA.AperFunction,ViaPad*%
%ADD19C,0.600000*%
%TD*%
%TA.AperFunction,Conductor*%
%ADD20C,0.200000*%
%TD*%
G04 APERTURE END LIST*
D10*
%TO.P,J4,1,Pin_1_1*%
%TO.N,+3.3V*%
X113445000Y-82710000D03*
D11*
%TO.P,J4,2,Pin_2_2*%
%TO.N,SDA2*%
X113445000Y-85210000D03*
%TO.P,J4,3,Pin_3_3*%
%TO.N,SCL2*%
X113445000Y-87710000D03*
%TO.P,J4,4,Pin_4_4*%
%TO.N,GND*%
X113445000Y-90210000D03*
%TD*%
D10*
%TO.P,J5,1,SERVO_PWM_1*%
%TO.N,SERVO2_PWM*%
X111850000Y-70000000D03*
D11*
%TO.P,J5,2,+5V_2*%
%TO.N,+5V_SERVO*%
X111850000Y-72500000D03*
%TO.P,J5,3,GND_3*%
%TO.N,GND*%
X111850000Y-75000000D03*
%TD*%
D10*
%TO.P,J3,1,SERVO_PWM_1*%
%TO.N,SERVO1_PWM*%
X111850000Y-58000000D03*
D11*
%TO.P,J3,2,+5V_2*%
%TO.N,+5V_SERVO*%
X111850000Y-60500000D03*
%TO.P,J3,3,GND_3*%
%TO.N,GND*%
X111850000Y-63000000D03*
%TD*%
D12*
%TO.P,Teensy4.1,0,RX1_0*%
%TO.N,RX*%
X121657500Y-51080000D03*
%TO.P,Teensy4.1,1,TX1_1*%
%TO.N,TX*%
X121657500Y-53620000D03*
%TO.P,Teensy4.1,2,PWM_2*%
%TO.N,SERVO1_PWM*%
X121657500Y-56160000D03*
%TO.P,Teensy4.1,3,PWM_3*%
%TO.N,SERVO2_PWM*%
X121657500Y-58700000D03*
%TO.P,Teensy4.1,3V,3.3V_3V*%
%TO.N,+3.3V*%
X121657500Y-84100000D03*
%TO.P,Teensy4.1,3V1,3.3V_3V1*%
%TO.N,+3V3*%
X136897500Y-53620000D03*
%TO.P,Teensy4.1,4,PWM_4*%
%TO.N,unconnected-(Teensy4.1-PWM-Pad4)*%
X121657500Y-61240000D03*
%TO.P,Teensy4.1,5,PWM_5*%
%TO.N,unconnected-(Teensy4.1-PWM-Pad5)*%
X121657500Y-63780000D03*
%TO.P,Teensy4.1,5V,VIN_5V*%
%TO.N,Net-(J1-Pin_1)*%
X136897500Y-48540000D03*
%TO.P,Teensy4.1,6,PWM_6*%
%TO.N,unconnected-(Teensy4.1-PWM-Pad6)*%
X121657500Y-66320000D03*
%TO.P,Teensy4.1,7,RX2_7*%
%TO.N,unconnected-(Teensy4.1-RX2-Pad7)*%
X121657500Y-68860000D03*
%TO.P,Teensy4.1,8,TX2_8*%
%TO.N,unconnected-(Teensy4.1-TX2-Pad8)*%
X121657500Y-71400000D03*
%TO.P,Teensy4.1,9,PWM_9*%
%TO.N,unconnected-(Teensy4.1-PWM-Pad9)*%
X121657500Y-73940000D03*
%TO.P,Teensy4.1,10,CS_10*%
%TO.N,unconnected-(Teensy4.1-CS-Pad10)*%
X121657500Y-76480000D03*
%TO.P,Teensy4.1,11,MOSI_11*%
%TO.N,unconnected-(Teensy4.1-MOSI-Pad11)*%
X121657500Y-79020000D03*
%TO.P,Teensy4.1,12,MISO_12*%
%TO.N,unconnected-(Teensy4.1-MISO-Pad12)*%
X121657500Y-81560000D03*
%TO.P,Teensy4.1,13,SCK_13*%
%TO.N,unconnected-(Teensy4.1-SCK-Pad13)*%
X136897500Y-81560000D03*
%TO.P,Teensy4.1,14,A0_14*%
%TO.N,Net-(Teensy4.1-A0)*%
X136897500Y-79020000D03*
%TO.P,Teensy4.1,15,A1_15*%
%TO.N,unconnected-(Teensy4.1-A1-Pad15)*%
X136897500Y-76480000D03*
%TO.P,Teensy4.1,16,A2_16*%
%TO.N,unconnected-(Teensy4.1-A2-Pad16)*%
X136897500Y-73940000D03*
%TO.P,Teensy4.1,17,A3_17*%
%TO.N,unconnected-(Teensy4.1-A3-Pad17)*%
X136897500Y-71400000D03*
%TO.P,Teensy4.1,18,SDA_18*%
%TO.N,SDA*%
X136897500Y-68860000D03*
%TO.P,Teensy4.1,19,SCL_19*%
%TO.N,SCL*%
X136897500Y-66320000D03*
%TO.P,Teensy4.1,20,TX5_20*%
%TO.N,unconnected-(Teensy4.1-TX5-Pad20)*%
X136897500Y-63780000D03*
%TO.P,Teensy4.1,21,RX5_21*%
%TO.N,unconnected-(Teensy4.1-RX5-Pad21)*%
X136897500Y-61240000D03*
%TO.P,Teensy4.1,22,PWM_22*%
%TO.N,unconnected-(Teensy4.1-PWM-Pad22)*%
X136897500Y-58700000D03*
%TO.P,Teensy4.1,23,PWM_23*%
%TO.N,unconnected-(Teensy4.1-PWM-Pad23)*%
X136897500Y-56160000D03*
%TO.P,Teensy4.1,24,SCL2_24*%
%TO.N,SCL2*%
X121657500Y-86640000D03*
%TO.P,Teensy4.1,25,SDA2_25*%
%TO.N,SDA2*%
X121657500Y-89180000D03*
%TO.P,Teensy4.1,26,MOSI1_26*%
%TO.N,unconnected-(Teensy4.1-MOSI1-Pad26)*%
X121657500Y-91720000D03*
%TO.P,Teensy4.1,27,SCK1_27*%
%TO.N,unconnected-(Teensy4.1-SCK1-Pad27)*%
X121657500Y-94260000D03*
%TO.P,Teensy4.1,28,RX7_28*%
%TO.N,unconnected-(Teensy4.1-RX7-Pad28)*%
X121657500Y-96800000D03*
%TO.P,Teensy4.1,29,TX7_29*%
%TO.N,unconnected-(Teensy4.1-TX7-Pad29)*%
X121657500Y-99340000D03*
%TO.P,Teensy4.1,30,GPIO_30*%
%TO.N,unconnected-(Teensy4.1-GPIO-Pad30)*%
X121657500Y-101880000D03*
%TO.P,Teensy4.1,31,GPIO_31*%
%TO.N,Net-(D1-A)*%
X121657500Y-104420000D03*
%TO.P,Teensy4.1,32,GPIO_32*%
%TO.N,Net-(D2-A)*%
X121657500Y-106960000D03*
%TO.P,Teensy4.1,33,PWM_33*%
%TO.N,Net-(BZ1-+)*%
X136897500Y-106960000D03*
%TO.P,Teensy4.1,34,RX8_34*%
%TO.N,unconnected-(Teensy4.1-RX8-Pad34)*%
X136897500Y-104420000D03*
%TO.P,Teensy4.1,35,TX8_35*%
%TO.N,unconnected-(Teensy4.1-TX8-Pad35)*%
X136897500Y-101880000D03*
%TO.P,Teensy4.1,36,PWM_36*%
%TO.N,unconnected-(Teensy4.1-PWM-Pad36)*%
X136897500Y-99340000D03*
%TO.P,Teensy4.1,37,PWM_37*%
%TO.N,unconnected-(Teensy4.1-PWM-Pad37)*%
X136897500Y-96800000D03*
%TO.P,Teensy4.1,38,CS1_38*%
%TO.N,unconnected-(Teensy4.1-CS1-Pad38)*%
X136897500Y-94260000D03*
%TO.P,Teensy4.1,39,MISO1_39*%
%TO.N,unconnected-(Teensy4.1-MISO1-Pad39)*%
X136897500Y-91720000D03*
%TO.P,Teensy4.1,40,A16_40*%
%TO.N,unconnected-(Teensy4.1-A16-Pad40)*%
X136897500Y-89180000D03*
%TO.P,Teensy4.1,41,A17_41*%
%TO.N,unconnected-(Teensy4.1-A17-Pad41)*%
X136897500Y-86640000D03*
%TO.P,Teensy4.1,G,GND_G*%
%TO.N,GND*%
X121657500Y-48540000D03*
%TO.P,Teensy4.1,G1,GND_G1*%
X136897500Y-51080000D03*
%TO.P,Teensy4.1,G2,GND_G2*%
X136897500Y-84100000D03*
%TD*%
D13*
%TO.P,BZ1,1,+_1*%
%TO.N,Net-(BZ1-+)*%
X145500000Y-106500000D03*
%TO.P,BZ1,2,-_2*%
%TO.N,GND*%
X145500000Y-99000000D03*
%TD*%
D14*
%TO.P,C8,1*%
%TO.N,Net-(J1-Pin_1)*%
X115600000Y-49200000D03*
%TO.P,C8,2*%
%TO.N,GND*%
X115600000Y-51200000D03*
%TD*%
D15*
%TO.P,J2,1,Pin_1_1*%
%TO.N,Net-(J1-Pin_2)*%
X147555000Y-80250000D03*
D16*
%TO.P,J2,2,Pin_2_2*%
%TO.N,GND*%
X147555000Y-77750000D03*
%TD*%
D14*
%TO.P,C7,1*%
%TO.N,+5V*%
X141800000Y-87000000D03*
%TO.P,C7,2*%
%TO.N,GND*%
X141800000Y-85000000D03*
%TD*%
D17*
%TO.P,J1,1,Pin_1_1*%
%TO.N,Net-(J1-Pin_1)*%
X154250000Y-56045000D03*
D18*
%TO.P,J1,2,Pin_2_2*%
%TO.N,Net-(J1-Pin_2)*%
X151750000Y-56045000D03*
%TD*%
D19*
%TO.N,GND*%
X145444000Y-69686200D03*
X138956000Y-70298600D03*
X158579400Y-78254900D03*
X118600000Y-66800000D03*
%TO.N,Net-(C6-Pad2)*%
X148000000Y-63800000D03*
X141000000Y-70594900D03*
%TO.N,+5V*%
X158200000Y-83400000D03*
X157000000Y-72400000D03*
X156400000Y-63000000D03*
%TO.N,Net-(U2-VSW)*%
X144400000Y-63400000D03*
X158352300Y-60824400D03*
%TO.N,+5V_SERVO*%
X107700000Y-66500000D03*
%TO.N,SDA*%
X145510835Y-68770835D03*
X150497000Y-66572300D03*
%TO.N,+3V3*%
X127210000Y-54851600D03*
X151110000Y-72150500D03*
X121490000Y-108975000D03*
X111799000Y-106550000D03*
X142208000Y-72770000D03*
%TO.N,SCL*%
X142400000Y-64800000D03*
%TO.N,Net-(J1-Pin_2)*%
X158800000Y-80250000D03*
%TD*%
%TO.N,GND*%
D20*
X149361600Y-78254900D02*
X148856700Y-77750000D01*
X114896000Y-63000000D02*
X111850000Y-63000000D01*
X122008100Y-48890600D02*
X124197500Y-51080000D01*
X140900000Y-84100000D02*
X141800000Y-85000000D01*
X138956000Y-70298600D02*
X139568400Y-69686200D01*
X124197500Y-51080000D02*
X136897500Y-51080000D01*
X118600000Y-66704000D02*
X114896000Y-63000000D01*
X121306900Y-48890600D02*
X122008100Y-48890600D01*
X120691400Y-49506100D02*
X121657500Y-48540000D01*
X120691400Y-49506100D02*
X121306900Y-48890600D01*
X147555000Y-77750000D02*
X148856700Y-77750000D01*
X158579400Y-78254900D02*
X149361600Y-78254900D01*
X115600000Y-51200000D02*
X118997500Y-51200000D01*
X136897500Y-84100000D02*
X140900000Y-84100000D01*
X118600000Y-66800000D02*
X118600000Y-66704000D01*
X139568400Y-69686200D02*
X145444000Y-69686200D01*
X118997500Y-51200000D02*
X120691400Y-49506100D01*
%TO.N,Net-(C6-Pad2)*%
X151122800Y-66801800D02*
X147329700Y-70594900D01*
X148627800Y-63800000D02*
X151122800Y-66295000D01*
X148000000Y-63800000D02*
X148627800Y-63800000D01*
X151122800Y-66295000D02*
X151122800Y-66801800D01*
X147329700Y-70594900D02*
X141000000Y-70594900D01*
%TO.N,+5V*%
X154600000Y-87000000D02*
X158200000Y-83400000D01*
X141800000Y-87000000D02*
X154600000Y-87000000D01*
%TO.N,+3.3V*%
X120267500Y-82710000D02*
X121657500Y-84100000D01*
X113445000Y-82710000D02*
X120267500Y-82710000D01*
%TO.N,SDA2*%
X113445000Y-86361700D02*
X113013100Y-86361700D01*
X112933500Y-88960000D02*
X121437500Y-88960000D01*
X112164000Y-87210800D02*
X112164000Y-88190500D01*
X112164000Y-88190500D02*
X112933500Y-88960000D01*
X113445000Y-85210000D02*
X113445000Y-86361700D01*
X113013100Y-86361700D02*
X112164000Y-87210800D01*
X121437500Y-88960000D02*
X121657500Y-89180000D01*
%TO.N,SCL2*%
X120587500Y-87710000D02*
X121657500Y-86640000D01*
X113445000Y-87710000D02*
X120587500Y-87710000D01*
%TO.N,Net-(J1-Pin_1)*%
X141910300Y-53552800D02*
X151757800Y-53552800D01*
X135595500Y-47238000D02*
X136897500Y-48540000D01*
X115600000Y-49200000D02*
X117562000Y-47238000D01*
X117562000Y-47238000D02*
X135595500Y-47238000D01*
X136897500Y-48540000D02*
X141910300Y-53552800D01*
X151757800Y-53552800D02*
X154250000Y-56045000D01*
%TO.N,Net-(U2-VSW)*%
X149214100Y-61185900D02*
X157990800Y-61185900D01*
X157990800Y-61185900D02*
X158352300Y-60824400D01*
X147000000Y-63400000D02*
X144400000Y-63400000D01*
X149214100Y-61185900D02*
X147000000Y-63400000D01*
%TO.N,SDA*%
X145510835Y-68770835D02*
X145421670Y-68860000D01*
X145600000Y-68860000D02*
X148209300Y-68860000D01*
X145510835Y-68770835D02*
X145600000Y-68860000D01*
X145421670Y-68860000D02*
X136897500Y-68860000D01*
X148209300Y-68860000D02*
X150497000Y-66572300D01*
%TO.N,+3V3*%
X119065000Y-106550000D02*
X121490000Y-108975000D01*
X142827500Y-72150500D02*
X142208000Y-72770000D01*
X151110000Y-72150500D02*
X142827500Y-72150500D01*
X111799000Y-106550000D02*
X119065000Y-106550000D01*
X135665900Y-54851600D02*
X136897500Y-53620000D01*
X127210000Y-54851600D02*
X135665900Y-54851600D01*
%TO.N,SERVO1_PWM*%
X113690000Y-56160000D02*
X111850000Y-58000000D01*
X121657500Y-56160000D02*
X113690000Y-56160000D01*
%TO.N,SCL*%
X142400000Y-64800000D02*
X140880000Y-66320000D01*
X140880000Y-66320000D02*
X136897500Y-66320000D01*
%TO.N,Net-(BZ1-+)*%
X136897500Y-106960000D02*
X145040000Y-106960000D01*
X145040000Y-106960000D02*
X145500000Y-106500000D01*
%TO.N,Net-(J1-Pin_2)*%
X147555000Y-80250000D02*
X158800000Y-80250000D01*
%TD*%
M02*
